<mxfile host="app.diagrams.net" agent="Mozilla/5.0 (Windows NT 10.0; Win64; x64) AppleWebKit/537.36 (KHTML, like Gecko) Chrome/127.0.0.0 Safari/537.36" version="24.7.6">
  <diagram id="RAGtzLFKwbdUckXWn4iN" name="Halaman-1">
    <mxGraphModel dx="607" dy="323" grid="1" gridSize="10" guides="1" tooltips="1" connect="1" arrows="1" fold="1" page="1" pageScale="1" pageWidth="827" pageHeight="1169" math="0" shadow="0">
      <root>
        <mxCell id="0" />
        <mxCell id="1" parent="0" />
        <mxCell id="K_lp6_0wbMEvAcMGEVY7-65" value="&lt;div&gt;&lt;/div&gt;" style="shape=umlLifeline;perimeter=lifelinePerimeter;whiteSpace=wrap;html=1;container=1;dropTarget=0;collapsible=0;recursiveResize=0;outlineConnect=0;portConstraint=eastwest;newEdgeStyle={&quot;curved&quot;:0,&quot;rounded&quot;:0};participant=umlActor;size=40;" parent="1" vertex="1">
          <mxGeometry x="220" y="81" width="20" height="340" as="geometry" />
        </mxCell>
        <mxCell id="OxrHae_57oYZ9077EPSq-14" value="" style="html=1;points=[[0,0,0,0,5],[0,1,0,0,-5],[1,0,0,0,5],[1,1,0,0,-5]];perimeter=orthogonalPerimeter;outlineConnect=0;targetShapes=umlLifeline;portConstraint=eastwest;newEdgeStyle={&quot;curved&quot;:0,&quot;rounded&quot;:0};" parent="K_lp6_0wbMEvAcMGEVY7-65" vertex="1">
          <mxGeometry x="5" y="52" width="10" height="108" as="geometry" />
        </mxCell>
        <mxCell id="K_lp6_0wbMEvAcMGEVY7-67" value="&lt;div&gt;Pengguna&lt;/div&gt;" style="text;html=1;align=center;verticalAlign=middle;resizable=0;points=[];autosize=1;strokeColor=none;fillColor=none;" parent="1" vertex="1">
          <mxGeometry x="190" y="49" width="80" height="30" as="geometry" />
        </mxCell>
        <mxCell id="K_lp6_0wbMEvAcMGEVY7-75" value="Sequence Diagram Action â€“ Classroom" style="shape=umlFrame;whiteSpace=wrap;html=1;pointerEvents=0;width=250;height=20;align=left;" parent="1" vertex="1">
          <mxGeometry x="190" y="30" width="420" height="300" as="geometry" />
        </mxCell>
        <mxCell id="OxrHae_57oYZ9077EPSq-15" value="" style="shape=umlLifeline;perimeter=lifelinePerimeter;whiteSpace=wrap;html=1;container=1;dropTarget=0;collapsible=0;recursiveResize=0;outlineConnect=0;portConstraint=eastwest;newEdgeStyle={&quot;curved&quot;:0,&quot;rounded&quot;:0};participant=umlBoundary;" parent="1" vertex="1">
          <mxGeometry x="416" y="81" width="50" height="339" as="geometry" />
        </mxCell>
        <mxCell id="OxrHae_57oYZ9077EPSq-16" value="" style="html=1;points=[[0,0,0,0,5],[0,1,0,0,-5],[1,0,0,0,5],[1,1,0,0,-5]];perimeter=orthogonalPerimeter;outlineConnect=0;targetShapes=umlLifeline;portConstraint=eastwest;newEdgeStyle={&quot;curved&quot;:0,&quot;rounded&quot;:0};" parent="OxrHae_57oYZ9077EPSq-15" vertex="1">
          <mxGeometry x="20" y="51" width="10" height="109" as="geometry" />
        </mxCell>
        <mxCell id="OxrHae_57oYZ9077EPSq-17" value="" style="html=1;align=left;spacingLeft=2;endArrow=classic;rounded=0;edgeStyle=orthogonalEdgeStyle;curved=0;rounded=0;endFill=1;" parent="OxrHae_57oYZ9077EPSq-15" source="OxrHae_57oYZ9077EPSq-16" target="OxrHae_57oYZ9077EPSq-18" edge="1">
          <mxGeometry x="-1" y="22" relative="1" as="geometry">
            <mxPoint x="31" y="84" as="sourcePoint" />
            <Array as="points">
              <mxPoint x="120" y="84" />
              <mxPoint x="120" y="114" />
            </Array>
            <mxPoint x="36" y="114" as="targetPoint" />
            <mxPoint as="offset" />
          </mxGeometry>
        </mxCell>
        <mxCell id="OxrHae_57oYZ9077EPSq-18" value="" style="html=1;points=[[0,0,0,0,5],[0,1,0,0,-5],[1,0,0,0,5],[1,1,0,0,-5]];perimeter=orthogonalPerimeter;outlineConnect=0;targetShapes=umlLifeline;portConstraint=eastwest;newEdgeStyle={&quot;curved&quot;:0,&quot;rounded&quot;:0};" parent="OxrHae_57oYZ9077EPSq-15" vertex="1">
          <mxGeometry x="25" y="102" width="10" height="50" as="geometry" />
        </mxCell>
        <mxCell id="OxrHae_57oYZ9077EPSq-19" value="&lt;div&gt;Scene Classroom&lt;/div&gt;" style="text;html=1;align=center;verticalAlign=middle;resizable=0;points=[];autosize=1;strokeColor=none;fillColor=none;" parent="1" vertex="1">
          <mxGeometry x="381" y="49" width="120" height="30" as="geometry" />
        </mxCell>
        <mxCell id="OxrHae_57oYZ9077EPSq-20" style="rounded=0;orthogonalLoop=1;jettySize=auto;html=1;exitX=1;exitY=0;exitDx=0;exitDy=5;exitPerimeter=0;" parent="1" edge="1">
          <mxGeometry relative="1" as="geometry">
            <mxPoint x="235" y="145" as="sourcePoint" />
            <mxPoint x="436" y="145" as="targetPoint" />
          </mxGeometry>
        </mxCell>
        <mxCell id="OxrHae_57oYZ9077EPSq-22" value="&lt;span style=&quot;font-size: 10px;&quot;&gt;2. Menampilkan&amp;nbsp;&lt;/span&gt;&lt;div&gt;&lt;span style=&quot;font-size: 10px;&quot;&gt;Pelajaran()&lt;/span&gt;&lt;/div&gt;" style="edgeLabel;html=1;align=left;verticalAlign=middle;resizable=0;points=[];" parent="OxrHae_57oYZ9077EPSq-20" vertex="1" connectable="0">
          <mxGeometry x="-0.3304" y="1" relative="1" as="geometry">
            <mxPoint x="145" y="4" as="offset" />
          </mxGeometry>
        </mxCell>
        <mxCell id="YE0VelRGrSm4NJ9uwC9Q-2" value="" style="shape=umlLifeline;perimeter=lifelinePerimeter;whiteSpace=wrap;html=1;container=1;dropTarget=0;collapsible=0;recursiveResize=0;outlineConnect=0;portConstraint=eastwest;newEdgeStyle={&quot;curved&quot;:0,&quot;rounded&quot;:0};participant=umlControl;" vertex="1" parent="1">
          <mxGeometry x="550" y="81" width="40" height="300" as="geometry" />
        </mxCell>
        <mxCell id="YE0VelRGrSm4NJ9uwC9Q-5" value="" style="html=1;points=[[0,0,0,0,5],[0,1,0,0,-5],[1,0,0,0,5],[1,1,0,0,-5]];perimeter=orthogonalPerimeter;outlineConnect=0;targetShapes=umlLifeline;portConstraint=eastwest;newEdgeStyle={&quot;curved&quot;:0,&quot;rounded&quot;:0};" vertex="1" parent="YE0VelRGrSm4NJ9uwC9Q-2">
          <mxGeometry x="15" y="52" width="10" height="178" as="geometry" />
        </mxCell>
        <mxCell id="YE0VelRGrSm4NJ9uwC9Q-3" value="&lt;div&gt;Proses&lt;/div&gt;" style="text;html=1;align=center;verticalAlign=middle;resizable=0;points=[];autosize=1;strokeColor=none;fillColor=none;" vertex="1" parent="1">
          <mxGeometry x="540" y="49" width="60" height="30" as="geometry" />
        </mxCell>
        <mxCell id="YE0VelRGrSm4NJ9uwC9Q-6" style="rounded=0;orthogonalLoop=1;jettySize=auto;html=1;" edge="1" parent="1" target="YE0VelRGrSm4NJ9uwC9Q-5">
          <mxGeometry relative="1" as="geometry">
            <mxPoint x="451" y="220" as="sourcePoint" />
            <mxPoint x="560" y="220" as="targetPoint" />
          </mxGeometry>
        </mxCell>
        <mxCell id="YE0VelRGrSm4NJ9uwC9Q-7" value="&lt;span style=&quot;font-size: 10px;&quot;&gt;3. Waktu Berjalan()&lt;/span&gt;" style="edgeLabel;html=1;align=left;verticalAlign=middle;resizable=0;points=[];" vertex="1" connectable="0" parent="1">
          <mxGeometry x="457.33333333333337" y="210" as="geometry" />
        </mxCell>
        <mxCell id="YE0VelRGrSm4NJ9uwC9Q-12" value="" style="shape=umlLifeline;perimeter=lifelinePerimeter;whiteSpace=wrap;html=1;container=1;dropTarget=0;collapsible=0;recursiveResize=0;outlineConnect=0;portConstraint=eastwest;newEdgeStyle={&quot;curved&quot;:0,&quot;rounded&quot;:0};participant=umlBoundary;" vertex="1" parent="1">
          <mxGeometry x="310" y="79" width="50" height="339" as="geometry" />
        </mxCell>
        <mxCell id="YE0VelRGrSm4NJ9uwC9Q-15" value="" style="html=1;points=[[0,0,0,0,5],[0,1,0,0,-5],[1,0,0,0,5],[1,1,0,0,-5]];perimeter=orthogonalPerimeter;outlineConnect=0;targetShapes=umlLifeline;portConstraint=eastwest;newEdgeStyle={&quot;curved&quot;:0,&quot;rounded&quot;:0};" vertex="1" parent="YE0VelRGrSm4NJ9uwC9Q-12">
          <mxGeometry x="20" y="186" width="10" height="44" as="geometry" />
        </mxCell>
        <mxCell id="YE0VelRGrSm4NJ9uwC9Q-16" value="&lt;div&gt;Scene Gameplay&lt;/div&gt;" style="text;html=1;align=center;verticalAlign=middle;resizable=0;points=[];autosize=1;strokeColor=none;fillColor=none;" vertex="1" parent="1">
          <mxGeometry x="272" y="49" width="120" height="30" as="geometry" />
        </mxCell>
        <mxCell id="YE0VelRGrSm4NJ9uwC9Q-17" value="Alt" style="shape=umlFrame;whiteSpace=wrap;html=1;pointerEvents=0;width=65;height=30;" vertex="1" parent="1">
          <mxGeometry x="195" y="250" width="405" height="70" as="geometry" />
        </mxCell>
        <mxCell id="YE0VelRGrSm4NJ9uwC9Q-18" style="rounded=0;orthogonalLoop=1;jettySize=auto;html=1;" edge="1" parent="1">
          <mxGeometry relative="1" as="geometry">
            <mxPoint x="565" y="290" as="sourcePoint" />
            <mxPoint x="340" y="290" as="targetPoint" />
          </mxGeometry>
        </mxCell>
        <mxCell id="YE0VelRGrSm4NJ9uwC9Q-19" value="&lt;span style=&quot;font-size: 10px;&quot;&gt;4. Menampilkan Scene Gameplay()&lt;/span&gt;" style="edgeLabel;html=1;align=left;verticalAlign=middle;resizable=0;points=[];" vertex="1" connectable="0" parent="1">
          <mxGeometry x="403.0033333333334" y="280" as="geometry" />
        </mxCell>
        <mxCell id="YE0VelRGrSm4NJ9uwC9Q-20" value="&lt;span style=&quot;font-size: 10px;&quot;&gt;[Sudah Waktunya Pulang == true]&lt;/span&gt;" style="edgeLabel;html=1;align=left;verticalAlign=middle;resizable=0;points=[];" vertex="1" connectable="0" parent="1">
          <mxGeometry x="410.0033333333334" y="264" as="geometry" />
        </mxCell>
        <mxCell id="YE0VelRGrSm4NJ9uwC9Q-21" value="1. Menekan Tombol Action Sit()" style="edgeLabel;html=1;align=left;verticalAlign=middle;resizable=0;points=[];" vertex="1" connectable="0" parent="1">
          <mxGeometry x="255.0033333333334" y="137" as="geometry" />
        </mxCell>
      </root>
    </mxGraphModel>
  </diagram>
</mxfile>
